<svg width="420" height="420" viewBox="0 0 420 420" fill="none" xmlns="http://www.w3.org/2000/svg">
  <rect width="420" height="420" fill="#F8FAFC"/>
  <circle cx="210" cy="210" r="195" fill="white" stroke="#111827" stroke-width="4"/>
  <g transform="translate(40 46)">
    <g fill="#39B54A">
      <path d="M84 100C65 90 51 72 46 50C65 58 78 76 84 100Z"/>
      <path d="M104 72C86 72 69 64 56 50C73 45 92 49 104 72Z"/>
      <path d="M120 106C100 107 82 98 68 83C87 78 108 86 120 106Z"/>
      <path d="M123 142C103 145 82 140 64 128C82 118 104 122 123 142Z"/>
      <path d="M121 178C101 183 80 181 60 170C77 158 99 158 121 178Z"/>
      <path d="M117 214C96 220 76 221 54 214C69 198 90 195 117 214Z"/>
      <path d="M110 247C90 255 70 258 48 253C61 237 81 231 110 247Z"/>
      <path d="M99 278C82 288 63 292 42 290C53 272 72 263 99 278Z"/>
      <path d="M145 44C131 60 124 79 123 102C142 95 155 79 160 57C156 53 151 48 145 44Z"/>
      <path d="M149 112C133 124 124 142 120 164C140 159 154 146 162 126C159 121 155 116 149 112Z"/>
      <path d="M147 182C132 194 123 211 119 233C139 229 153 216 160 196C157 191 153 186 147 182Z"/>
      <path d="M139 250C127 262 120 276 117 295C135 291 148 280 156 264C151 259 145 254 139 250Z"/>
    </g>
    <g transform="translate(340 0) scale(-1 1)" fill="#39B54A">
      <path d="M84 100C65 90 51 72 46 50C65 58 78 76 84 100Z"/>
      <path d="M104 72C86 72 69 64 56 50C73 45 92 49 104 72Z"/>
      <path d="M120 106C100 107 82 98 68 83C87 78 108 86 120 106Z"/>
      <path d="M123 142C103 145 82 140 64 128C82 118 104 122 123 142Z"/>
      <path d="M121 178C101 183 80 181 60 170C77 158 99 158 121 178Z"/>
      <path d="M117 214C96 220 76 221 54 214C69 198 90 195 117 214Z"/>
      <path d="M110 247C90 255 70 258 48 253C61 237 81 231 110 247Z"/>
      <path d="M99 278C82 288 63 292 42 290C53 272 72 263 99 278Z"/>
      <path d="M145 44C131 60 124 79 123 102C142 95 155 79 160 57C156 53 151 48 145 44Z"/>
      <path d="M149 112C133 124 124 142 120 164C140 159 154 146 162 126C159 121 155 116 149 112Z"/>
      <path d="M147 182C132 194 123 211 119 233C139 229 153 216 160 196C157 191 153 186 147 182Z"/>
      <path d="M139 250C127 262 120 276 117 295C135 291 148 280 156 264C151 259 145 254 139 250Z"/>
    </g>
    <g fill="#111827">
      <circle cx="89" cy="101" r="4.5"/>
      <circle cx="97" cy="102" r="4.5"/>
      <circle cx="251" cy="101" r="4.5"/>
      <circle cx="259" cy="102" r="4.5"/>
      <circle cx="105" cy="176" r="4.5"/>
      <circle cx="243" cy="176" r="4.5"/>
    </g>
    <g fill="#F4C20D">
      <path d="M170 58C161 58 154 65 154 74C154 85 160 92 169 97L156 240H184L170 97C179 92 186 85 186 74C186 65 179 58 170 58Z"/>
      <path d="M170 74C165 74 161 70 161 65C161 60 165 56 170 56C175 56 179 60 179 65C179 70 175 74 170 74Z"/>
      <path d="M146 87C138 87 132 93 132 101C132 110 138 116 146 119L138 234H155L150 118C158 115 163 109 163 101C163 93 157 87 149 87H146Z"/>
      <path d="M194 87C186 87 180 93 180 101C180 109 185 115 193 118L188 234H205L197 119C205 116 211 110 211 101C211 93 205 87 197 87H194Z"/>
      <path d="M122 110C113 110 106 117 106 126C106 136 113 143 123 146L118 233H135L133 146C142 143 149 136 149 126C149 117 142 110 133 110H122Z"/>
      <path d="M215 110C206 110 199 117 199 126C199 136 206 143 216 146L214 233H231L226 146C236 143 243 136 243 126C243 117 236 110 227 110H215Z"/>
      <path d="M118 239H225C223 271 210 289 171 293C133 289 120 271 118 239Z"/>
      <path d="M170 261C163 261 157 267 157 274C157 281 163 287 170 287C177 287 183 281 183 274C183 267 177 261 170 261Z" fill="white"/>
      <path d="M170 263C164 263 159 268 159 274C159 280 164 285 170 285C176 285 181 280 181 274C181 268 176 263 170 263Z"/>
    </g>
    <path d="M133 306C145 298 156 300 164 311C154 314 145 313 133 306Z" fill="#D92B2B"/>
    <path d="M209 306C197 298 186 300 178 311C188 314 197 313 209 306Z" fill="#D92B2B"/>
    <path d="M164 311C160 319 157 323 150 327" stroke="#2FA84F" stroke-width="4" stroke-linecap="round"/>
    <path d="M178 311C182 319 185 323 192 327" stroke="#2FA84F" stroke-width="4" stroke-linecap="round"/>
  </g>
</svg>
